<?xml version="1.0" standalone="no"?>
<!DOCTYPE svg PUBLIC "-//W3C//DTD SVG 20010904//EN"
 "http://www.w3.org/TR/2001/REC-SVG-20010904/DTD/svg10.dtd">
<svg version="1.0" xmlns="http://www.w3.org/2000/svg"
 width="800.000000pt" height="800.000000pt" viewBox="0 0 800.000000 800.000000"
 preserveAspectRatio="xMidYMid meet">
<metadata>
Created by potrace 1.14, written by Peter Selinger 2001-2017
</metadata>
<g transform="translate(0.000000,800.000000) scale(0.100000,-0.100000)"
fill="#000000" stroke="none">
<path d="M3800 7804 c-25 -2 -101 -9 -170 -14 -680 -59 -1365 -324 -1926 -743
-1237 -926 -1799 -2487 -1433 -3988 226 -932 799 -1745 1609 -2286 488 -326
1035 -528 1650 -610 194 -26 737 -26 930 0 748 101 1387 373 1960 835 124 101
369 340 483 472 462 534 774 1208 881 1900 38 251 50 433 43 705 -14 571 -139
1080 -387 1585 -302 612 -740 1114 -1305 1496 -513 346 -1082 554 -1720 629
-125 15 -522 27 -615 19z m1125 -825 c-655 -245 -1139 -776 -1305 -1436 -35
-140 -67 -370 -52 -385 6 -6 38 -4 93 7 300 62 746 18 1109 -107 854 -296
1473 -1042 1617 -1948 28 -178 25 -590 -5 -760 -28 -159 -71 -320 -117 -446
-40 -109 -163 -367 -190 -399 -16 -20 -16 -20 -11 5 15 61 36 235 42 345 26
470 -142 983 -446 1365 -126 158 -438 439 -473 427 -6 -2 -27 -50 -47 -108
-85 -245 -140 -327 -439 -654 -214 -234 -431 -402 -691 -535 -345 -176 -669
-258 -1055 -267 -237 -6 -405 9 -604 53 -546 120 -1083 462 -1411 900 -69 91
-191 276 -185 282 1 1 52 -35 113 -81 395 -296 811 -440 1272 -440 189 0 347
20 517 64 115 29 328 107 371 135 l23 15 -57 62 c-62 69 -132 169 -187 267
-42 77 -194 510 -231 660 -108 442 -79 966 79 1397 54 147 174 384 264 519
410 618 1068 1009 1831 1087 19 2 85 4 145 5 l110 1 -80 -30z"/>
</g>
</svg>
