<?xml version="1.0" standalone="no"?>
<!DOCTYPE svg PUBLIC "-//W3C//DTD SVG 20010904//EN"
 "http://www.w3.org/TR/2001/REC-SVG-20010904/DTD/svg10.dtd">
<svg version="1.0" xmlns="http://www.w3.org/2000/svg"
 width="512.000000pt" height="512.000000pt" viewBox="0 0 512.000000 512.000000"
 preserveAspectRatio="xMidYMid meet">
<metadata>
Created by potrace 1.14, written by Peter Selinger 2001-2017
</metadata>
<g transform="translate(0.000000,512.000000) scale(0.100000,-0.100000)"
fill="#000000" stroke="none">
<path d="M2437 4994 c-1 -1 -40 -5 -87 -8 -242 -20 -484 -78 -715 -171 -117
-47 -145 -61 -285 -138 -70 -38 -230 -143 -275 -179 -11 -9 -49 -40 -85 -69
-89 -72 -253 -237 -332 -334 -406 -500 -597 -1117 -544 -1760 9 -110 11 -131
33 -255 47 -273 190 -626 357 -880 120 -183 330 -418 486 -545 25 -20 55 -45
67 -55 23 -20 139 -99 213 -146 228 -144 565 -276 820 -320 14 -3 50 -9 80
-14 209 -36 622 -34 795 3 11 3 40 8 65 13 25 4 47 8 50 9 3 1 32 7 65 14 145
32 377 120 538 204 178 94 285 165 452 300 62 51 258 247 305 306 19 24 40 48
45 55 80 90 191 270 279 451 124 255 204 533 233 805 10 94 10 455 0 535 -30
237 -90 469 -174 670 -35 84 -132 277 -149 296 -8 8 -14 19 -14 23 0 5 -76
126 -102 161 -288 392 -649 676 -1085 854 -98 39 -309 105 -376 116 -18 3 -39
8 -48 11 -10 2 -30 7 -45 9 -16 2 -40 6 -54 9 -25 5 -67 10 -173 22 -54 6
-334 13 -340 8z"/>
</g>
</svg>
